Fly_normalized_Motion_pl07
version=1
nRows=24
nColumns=43
inDegrees=yes
endheader
time		pelvis_tilt		pelvis_list		pelvis_rotation		pelvis_tx		pelvis_ty		pelvis_tz		hip_flexion_r		hip_adduction_r		hip_rotation_r		knee_angle_r		ankle_angle_r		subtalar_angle_r		mtp_angle_r		hip_flexion_l		hip_adduction_l		hip_rotation_l		knee_angle_l		ankle_angle_l		subtalar_angle_l		mtp_angle_l		lumbar_extension		lumbar_bending		lumbar_rotation		neck_flexion		neck_lateral_bending		neck_rotation		arm_flex_r		arm_add_r		arm_rot_r		elbow_flex_r		pro_sup_r		wrist_flex_r		wrist_dev_r		hand_finger_flex_r		arm_flex_l		arm_add_l		arm_rot_l		elbow_flex_l		pro_sup_l		wrist_flex_l		wrist_dev_l		hand_finger_flex_l		
2.859848		2.337015		-3.390190		95.275967		-0.019174		1.257278		0.745590		30.858489		-5.419508		-18.388813		-24.522954		-25.996323		-0.711424		22.387475		26.974190		-5.640186		-13.082792		-14.546609		-22.862209		2.449586		12.710116		-26.302395		2.845119		-0.081353		-21.448221		5.159869		-2.168404		-49.754004		-26.212072		-21.122218		60.709642		123.388978		-1.265819		-7.475134		-31.789337		-82.319180		-31.088697		-33.880896		72.309559		143.099414		-9.466141		-4.282798		-24.894848		
2.863813		2.366578		-3.298635		95.337157		-0.019296		1.245113		0.737393		30.540076		-5.403939		-18.640811		-23.980002		-26.008738		-0.877812		22.208157		26.707351		-5.643301		-12.934086		-13.745433		-22.848818		2.296513		12.729992		-25.948919		2.847976		-0.132806		-22.123735		5.185374		-2.240846		-51.419908		-25.484105		-21.624227		60.606529		123.369352		-1.471193		-7.682096		-31.662364		-83.309117		-29.793247		-34.205281		71.866195		143.109916		-9.290352		-4.195033		-24.940837		
2.867778		2.347264		-3.235117		95.339131		-0.019220		1.232860		0.729240		30.217246		-5.388791		-18.837690		-23.352341		-26.000898		-1.034219		22.075535		26.478433		-5.637024		-12.759900		-13.040386		-22.811110		2.177250		12.753951		-25.589198		2.764612		-0.169541		-22.664358		5.213840		-2.295258		-52.933514		-24.776576		-22.007218		60.424773		123.298006		-1.626817		-7.866065		-31.603062		-84.191791		-28.632173		-34.418404		71.345293		143.084932		-9.089242		-4.114030		-24.936811		
2.871742		2.339320		-3.121592		95.339685		-0.019269		1.220602		0.721021		29.895902		-5.379647		-18.982970		-22.874180		-26.006939		-1.205420		21.960129		26.215461		-5.640722		-12.564524		-12.447171		-22.758687		2.050822		12.798476		-25.268582		2.720224		-0.160763		-23.413301		5.207767		-2.326019		-54.363148		-24.014863		-22.491866		60.167453		123.160333		-1.828267		-8.067878		-31.604436		-84.863841		-27.426378		-34.729819		70.809586		142.996634		-8.909953		-4.031245		-24.929095		
2.875707		2.331203		-2.974308		95.332276		-0.019326		1.208333		0.712821		29.568096		-5.369246		-19.081409		-22.480307		-26.009094		-1.375898		21.838613		25.972012		-5.657871		-12.353531		-12.022672		-22.694468		1.908917		12.881271		-24.994710		2.696466		-0.125423		-24.177385		5.138463		-2.352601		-55.660662		-23.262178		-22.965617		59.799179		122.998175		-2.021768		-8.291976		-31.604551		-85.367642		-26.299799		-35.023988		70.230383		142.868085		-8.691816		-3.978088		-24.920138		
2.879672		2.319514		-2.804676		95.316151		-0.019393		1.196002		0.704716		29.263181		-5.360087		-19.104333		-22.183079		-26.005066		-1.515825		21.722506		25.762095		-5.685633		-12.139980		-11.767601		-22.603718		1.762974		13.008071		-24.770653		2.684818		-0.072582		-24.868116		5.021917		-2.404167		-56.826721		-22.532099		-23.412302		59.359662		122.829666		-2.211972		-8.508276		-31.603387		-85.707803		-25.218251		-35.314681		69.614078		142.678597		-8.507570		-3.930211		-24.934563		
2.883636		2.295155		-2.611329		95.296505		-0.019499		1.183605		0.696745		28.981299		-5.367001		-19.030280		-21.983277		-25.985354		-1.618455		21.623137		25.586484		-5.712316		-11.914357		-11.684957		-22.479308		1.607961		13.184633		-24.603476		2.676690		-0.011481		-25.494143		4.868650		-2.488919		-57.848039		-21.822686		-23.838949		58.860273		122.668965		-2.406874		-8.695400		-31.595846		-85.885613		-24.169960		-35.614960		68.971523		142.393053		-8.410973		-3.880854		-24.978198		
2.887601		2.252818		-2.394181		95.282077		-0.019637		1.171141		0.688917		28.716853		-5.393292		-18.869384		-21.876408		-25.948525		-1.689274		21.550534		25.446240		-5.730764		-11.670632		-11.763119		-22.339876		1.447003		13.395052		-24.495320		2.661822		0.040862		-26.037843		4.698558		-2.589002		-58.724112		-21.147973		-24.223778		58.301014		122.535064		-2.592724		-8.832869		-31.575460		-85.935971		-23.172270		-35.905129		68.321783		142.009780		-8.407065		-3.832045		-25.032680		
2.891566		2.190401		-2.146383		95.279368		-0.019835		1.158631		0.681266		28.464683		-5.448737		-18.609209		-21.862746		-25.882133		-1.742012		21.516566		25.344367		-5.733948		-11.384086		-12.025038		-22.191653		1.278568		13.632229		-24.460079		2.638131		0.070298		-26.509098		4.516498		-2.682912		-59.406872		-20.513708		-24.572598		57.668064		122.439909		-2.769276		-8.907966		-31.540227		-85.841216		-22.211078		-36.193733		67.652015		141.496865		-8.507162		-3.782152		-25.079392		
2.895530		2.112903		-1.873257		95.290281		-0.020012		1.146077		0.673747		28.220524		-5.516949		-18.265964		-21.927884		-25.784141		-1.802144		21.517289		25.278997		-5.730249		-11.045548		-12.447357		-22.042043		1.100313		13.889964		-24.489363		2.603394		0.055157		-26.922152		4.319213		-2.749099		-59.899537		-19.921786		-24.888636		56.966431		122.380666		-2.935695		-8.939117		-31.490948		-85.624923		-21.279242		-36.460792		66.949793		140.859961		-8.681429		-3.745874		-25.106395		
2.899495		2.028583		-1.583864		95.318447		-0.020155		1.133459		0.666393		27.998823		-5.594635		-17.859214		-22.078444		-25.661075		-1.888210		21.550989		25.263613		-5.723124		-10.669629		-13.024951		-21.909518		0.922288		14.155267		-24.579727		2.564352		-0.008466		-27.261792		4.116152		-2.767360		-60.200883		-19.394714		-25.152424		56.206923		122.356970		-3.082516		-8.924929		-31.433582		-85.284215		-20.400504		-36.676981		66.213554		140.128607		-8.911893		-3.722702		-25.111739		
2.903460		1.942758		-1.285101		95.362889		-0.020271		1.120765		0.659171		27.811195		-5.673114		-17.403259		-22.322252		-25.522442		-2.010310		21.609803		25.307677		-5.712372		-10.277381		-13.756404		-21.789048		0.749085		14.420353		-24.715348		2.527594		-0.119635		-27.548653		3.906465		-2.737793		-60.319911		-18.922748		-25.373719		55.407412		122.352259		-3.218851		-8.871955		-31.385163		-84.807632		-19.560507		-36.834374		65.428024		139.341063		-9.186285		-3.694991		-25.108489		
2.907424		1.885132		-1.164205		95.451071		-0.020394		1.107468		0.652233		27.900176		-5.733963		-16.844548		-22.704288		-25.338285		-2.552265		21.975662		25.667448		-5.661614		-9.417967		-14.716283		-21.683468		0.074419		15.892878		-24.703068		2.549014		-0.500022		-27.623152		3.570928		-2.483559		-60.302392		-18.705170		-25.454474		54.549110		122.598330		-3.737947		-9.316911		-31.112266		-84.325369		-18.892314		-36.222615		63.980441		135.651544		-10.840481		-4.688429		-24.902027		
2.911389		1.818614		-0.855742		95.566757		-0.020465		1.094636		0.645273		27.772740		-5.834287		-16.479917		-23.116799		-25.303934		-2.558612		22.040777		25.808871		-5.658067		-9.283107		-15.643967		-21.703371		0.085148		16.091773		-24.906622		2.538831		-0.540267		-27.914972		3.426323		-2.492062		-60.177772		-18.221299		-25.636397		53.741153		122.532456		-3.786490		-9.006091		-31.103818		-83.574203		-18.286076		-36.346646		63.324107		135.299901		-10.961698		-4.329698		-24.842660		
2.915354		1.723895		-0.528084		95.614490		-0.020463		1.081677		0.638439		27.696184		-5.923913		-16.012779		-23.648817		-25.182486		-2.614892		22.108122		26.008970		-5.653466		-9.070180		-16.816057		-21.571806		0.090135		16.280487		-25.173921		2.492353		-0.694843		-28.100044		3.224111		-2.459195		-59.872494		-17.865925		-25.828272		52.942305		122.467248		-3.881336		-8.752182		-31.154231		-82.728300		-17.631463		-36.389839		62.561763		134.972222		-11.097865		-3.955000		-24.826084		
2.919318		1.683115		-0.532995		95.713020		-0.020473		1.067834		0.631890		28.065903		-5.987918		-15.392675		-24.319771		-24.954522		-2.837006		22.382642		26.737266		-5.650853		-8.691775		-18.297292		-21.173480		0.158489		17.371129		-25.100623		2.501151		-0.966550		-28.073744		2.894713		-2.308308		-59.507028		-17.678719		-25.791863		52.058367		122.416125		-4.316209		-8.853829		-31.550068		-81.844149		-17.194303		-35.790143		61.409074		133.338086		-12.323882		-3.884096		-24.870885		
2.923283		1.594990		-0.246520		95.759117		-0.020355		1.054460		0.625422		28.187978		-6.094746		-15.015344		-25.123751		-24.895095		-2.913926		22.511724		27.123016		-5.652411		-8.460363		-19.735090		-21.066876		0.196956		17.873684		-25.386352		2.445085		-1.112538		-28.153759		2.702140		-2.250836		-59.022353		-17.443638		-25.832701		51.305490		122.356878		-4.430313		-8.722496		-31.693657		-80.882661		-16.816778		-35.534482		60.612759		132.633162		-12.686274		-3.626082		-24.824114		
2.927247		1.467479		0.143846		95.818768		-0.020414		1.041142		0.618949		28.192076		-6.244986		-14.625641		-25.936075		-24.821067		-2.933146		22.571385		27.437370		-5.606161		-8.264400		-21.296782		-20.929006		0.255677		18.075960		-25.806736		2.383219		-1.273192		-28.086333		2.519510		-2.198331		-58.430747		-17.258500		-25.908267		50.544197		122.324560		-4.458258		-8.535917		-31.738235		-79.813141		-16.452060		-35.381015		59.923261		132.401776		-12.690662		-3.257152		-24.820439		
2.931212		1.373280		0.371499		95.898100		-0.020533		1.027329		0.612849		28.428136		-6.378260		-14.175194		-26.811551		-24.623489		-2.951645		22.696284		28.006376		-5.550457		-7.951144		-22.967102		-20.521395		0.473398		18.530353		-26.129865		2.372961		-1.481742		-27.645158		2.224208		-2.094942		-57.703399		-17.182569		-25.883662		49.739299		122.360906		-4.628557		-8.583280		-31.864269		-78.620461		-16.177423		-34.965950		59.168601		131.971989		-12.973043		-2.891763		-24.984114		
2.935177		1.285462		0.724492		95.918293		-0.020457		1.013642		0.606624		28.608767		-6.509140		-13.953452		-27.857799		-24.592869		-2.956950		22.787245		28.474544		-5.569519		-7.812981		-24.725993		-20.458878		0.662392		18.803298		-26.536953		2.326687		-1.534851		-27.693398		2.123681		-2.072241		-56.981020		-17.079380		-25.824863		49.036602		122.389494		-4.698315		-8.537088		-31.911873		-77.494882		-16.065399		-34.579205		58.627125		131.717665		-13.061010		-2.660801		-25.087304		
2.939141		1.332283		0.640130		95.936582		-0.020341		0.998867		0.600714		29.363269		-6.541710		-13.644912		-29.053568		-24.332730		-2.928954		23.116458		29.549099		-5.678910		-7.560824		-26.708042		-19.929624		1.293237		19.824454		-26.512832		2.398873		-1.570508		-27.298507		1.868745		-2.044131		-56.156429		-17.066306		-25.646947		48.137696		122.566899		-5.158832		-9.023627		-32.128737		-76.277616		-16.113699		-33.688654		57.881481		130.843418		-13.797125		-2.463944		-25.610616		
2.943106		1.260699		0.884362		95.893986		-0.020227		0.984752		0.594611		29.725628		-6.648709		-13.457973		-30.224573		-24.153002		-2.926813		23.352050		30.194885		-5.738463		-7.583465		-28.642993		-19.719822		1.553747		20.463039		-26.832603		2.340307		-1.558240		-27.286830		1.768627		-2.059744		-55.177518		-17.013800		-25.584274		47.343113		122.640516		-5.285249		-9.010491		-32.171087		-75.021488		-16.142411		-33.119465		57.406109		130.368432		-13.932154		-2.368912		-25.735454		
2.947071		1.264114		0.832693		95.795984		-0.019984		0.969826		0.588712		30.540148		-6.695195		-13.217594		-31.631258		-23.770711		-2.859193		23.889947		31.239210		-5.896464		-7.641308		-30.750634		-19.222244		2.142842		21.977070		-26.849428		2.319976		-1.448340		-27.078196		1.609513		-2.095401		-54.191199		-16.996965		-25.435664		46.470971		122.856410		-5.689815		-9.373328		-32.302815		-73.728061		-16.332400		-32.202039		56.863511		129.306038		-14.532021		-2.438529		-26.090380		
2.951035		1.174230		1.193399		95.758075		-0.019783		0.955431		0.582998		30.913724		-6.825599		-13.115153		-33.108030		-23.226973		-2.893966		24.063966		31.823943		-5.956318		-7.662957		-32.852864		-18.681674		2.295978		22.435494		-27.436246		2.242660		-1.458015		-26.335670		1.521997		-2.059290		-53.058615		-17.047864		-25.238434		45.873240		122.962219		-5.751483		-9.340320		-32.337689		-72.355234		-16.404003		-31.685251		56.594233		129.193499		-14.600023		-2.434358		-26.115502		
